<svg width="32" height="32" viewBox="0 0 32 32" fill="none" xmlns="http://www.w3.org/2000/svg">
<path d="M14.1667 0H1.33333C0.595833 0 0 0.595833 0 1.33333V14.1667C0 14.35 0.15 14.5 0.333333 14.5H14.1667C14.35 14.5 14.5 14.35 14.5 14.1667V0.333333C14.5 0.15 14.35 0 14.1667 0ZM11.8333 11.8333H2.66667V2.66667H11.8333V11.8333ZM6.08333 8.75H8.41667C8.6 8.75 8.75 8.6 8.75 8.41667V6.08333C8.75 5.9 8.6 5.75 8.41667 5.75H6.08333C5.9 5.75 5.75 5.9 5.75 6.08333V8.41667C5.75 8.6 5.9 8.75 6.08333 8.75ZM14.1667 17.5H0.333333C0.15 17.5 0 17.65 0 17.8333V30.6667C0 31.4042 0.595833 32 1.33333 32H14.1667C14.35 32 14.5 31.85 14.5 31.6667V17.8333C14.5 17.65 14.35 17.5 14.1667 17.5ZM11.8333 29.3333H2.66667V20.1667H11.8333V29.3333ZM6.08333 26.25H8.41667C8.6 26.25 8.75 26.1 8.75 25.9167V23.5833C8.75 23.4 8.6 23.25 8.41667 23.25H6.08333C5.9 23.25 5.75 23.4 5.75 23.5833V25.9167C5.75 26.1 5.9 26.25 6.08333 26.25ZM30.6667 0H17.8333C17.65 0 17.5 0.15 17.5 0.333333V14.1667C17.5 14.35 17.65 14.5 17.8333 14.5H31.6667C31.85 14.5 32 14.35 32 14.1667V1.33333C32 0.595833 31.4042 0 30.6667 0ZM29.3333 11.8333H20.1667V2.66667H29.3333V11.8333ZM23.5833 8.75H25.9167C26.1 8.75 26.25 8.6 26.25 8.41667V6.08333C26.25 5.9 26.1 5.75 25.9167 5.75H23.5833C23.4 5.75 23.25 5.9 23.25 6.08333V8.41667C23.25 8.6 23.4 8.75 23.5833 8.75ZM31.6667 17.5H29.6667C29.4833 17.5 29.3333 17.65 29.3333 17.8333V23.4167H26.0833V17.8333C26.0833 17.65 25.9333 17.5 25.75 17.5H17.8333C17.65 17.5 17.5 17.65 17.5 17.8333V31.6667C17.5 31.85 17.65 32 17.8333 32H19.8333C20.0167 32 20.1667 31.85 20.1667 31.6667V21.5H23.4167V25.75C23.4167 25.9333 23.5667 26.0833 23.75 26.0833H31.6667C31.85 26.0833 32 25.9333 32 25.75V17.8333C32 17.65 31.85 17.5 31.6667 17.5ZM25.75 29.3333H23.75C23.5667 29.3333 23.4167 29.4833 23.4167 29.6667V31.6667C23.4167 31.85 23.5667 32 23.75 32H25.75C25.9333 32 26.0833 31.85 26.0833 31.6667V29.6667C26.0833 29.4833 25.9333 29.3333 25.75 29.3333ZM31.6667 29.3333H29.6667C29.4833 29.3333 29.3333 29.4833 29.3333 29.6667V31.6667C29.3333 31.85 29.4833 32 29.6667 32H31.6667C31.85 32 32 31.85 32 31.6667V29.6667C32 29.4833 31.85 29.3333 31.6667 29.3333Z" fill="black"/>
</svg>